<svg width="284" height="284" viewBox="0 0 284 284" fill="none" xmlns="http://www.w3.org/2000/svg">
<g clip-path="url(#clip0_703_1381)">
<path d="M141.832 -0.0175781C63.4322 -0.0175781 0.0322266 63.3824 0.0322266 141.782C0.0322266 220.182 63.4322 283.482 141.732 283.482C220.032 283.482 283.432 220.082 283.432 141.782C283.432 63.4824 219.932 -0.0175781 141.832 -0.0175781ZM19.5322 86.6824C33.3322 55.1824 58.3322 30.5824 90.0322 17.1824C122.732 3.38242 158.732 2.98242 191.832 15.9824C258.732 42.3824 293.032 117.982 269.232 185.482L19.5322 86.6824Z" fill="url(#paint0_linear_703_1381)"/>
<path d="M19.5322 86.6824C33.3322 55.1824 58.3322 30.5824 90.0322 17.1824C122.732 3.38239 158.732 2.98239 191.832 15.9824C258.732 42.3824 293.032 117.982 269.232 185.482L19.5322 86.6824Z" fill="white"/>
<path d="M112.132 74.8824L141.032 91.9824L169.932 74.8824L141.032 26.9824L112.132 74.8824Z" fill="#ED254E"/>
<path d="M112.132 84.2822L141.032 124.982L169.932 84.2822L141.032 101.382L112.132 84.2822Z" fill="#ED254E"/>
<path d="M78.8324 171.282C76.6324 170.282 74.7324 167.582 74.7324 165.182V151.982L115.632 169.482L115.832 219.082C115.832 230.482 115.832 231.082 124.132 234.682L148.732 245.082V262.782L107.832 245.282C103.332 243.282 99.5324 237.782 99.5324 232.882V215.182L91.2324 211.682C86.7324 209.682 82.9324 204.182 82.9324 199.282V190.382L99.2324 197.282V179.582L78.8324 171.282Z" fill="white"/>
<path d="M148.532 227.582L140.232 224.082C131.932 220.182 131.932 220.782 131.932 211.682V151.982L140.232 155.482C144.732 157.482 148.532 162.982 148.532 167.882V227.582Z" fill="white"/>
<path d="M219.732 125.383L231.532 107.483L219.732 90.5825H229.332L237.032 101.583L243.932 90.5825H253.732L242.032 108.683L253.832 125.583H244.032L236.332 114.583L229.432 125.583H219.832V125.383H219.732V125.383Z" fill="#ED254E"/>
<path d="M174.517 100.289H193.774V108.084H174.517V100.289Z" fill="#ED254E"/>
<path d="M196.066 91.6543L192.169 84.3184L206.23 76.2188H214.635V125.583H205.312V86.5352L196.066 91.6543Z" fill="#ED254E"/>
</g>
<defs>
<linearGradient id="paint0_linear_703_1381" x1="164.626" y1="82.1157" x2="90.9483" y2="274.054" gradientUnits="userSpaceOnUse">
<stop stop-color="#ED254E"/>
<stop offset="1" stop-color="#370D6E"/>
</linearGradient>
<clipPath id="clip0_703_1381">
<rect width="283.465" height="283.465" fill="white"/>
</clipPath>
</defs>
</svg>
