<svg width="284" height="284" viewBox="0 0 284 284" fill="none" xmlns="http://www.w3.org/2000/svg">
<g clip-path="url(#clip0_701_1343)">
<path d="M141.832 0C63.4419 0 0.0498047 63.3921 0.0498047 141.782C0.0498047 220.173 63.4419 283.465 141.732 283.465C220.022 283.465 283.414 220.072 283.414 141.782C283.414 63.4921 219.922 0 141.832 0ZM19.5474 86.6892C33.3456 55.1931 58.3425 30.5962 90.0386 17.1979C122.734 3.39958 158.73 2.99963 191.826 15.998C258.717 42.3947 293.013 117.985 269.216 185.477L19.5474 86.6892Z" fill="url(#paint0_linear_701_1343)"/>
<path d="M19.5474 86.6892C33.3456 55.1932 58.3425 30.5962 90.0386 17.1979C122.734 3.39963 158.73 2.99968 191.826 15.9981C258.717 42.3948 293.013 117.985 269.216 185.477L19.5474 86.6892Z" fill="white"/>
<path d="M78.8397 171.279C76.64 170.279 74.7402 167.579 74.7402 165.179V151.981L115.635 169.479L115.835 219.073C115.835 230.471 115.835 231.071 124.134 234.671L148.731 245.069V262.767L107.836 245.269C103.337 243.27 99.5371 237.77 99.5371 232.871V215.173L91.2382 211.674C86.7387 209.674 82.9392 204.174 82.9392 199.275V190.376L99.2372 197.275V179.578L78.8397 171.279Z" fill="white"/>
<path d="M148.531 227.572L140.232 224.072C131.933 220.172 131.933 220.772 131.933 211.674V151.981L140.232 155.481C144.732 157.48 148.531 162.98 148.531 167.879V227.572Z" fill="white"/>
<path d="M139.771 54.708C138.32 53.8787 136.454 53.8787 134.796 54.708L123.186 61.5495L115.307 65.9032L103.905 72.7448C102.454 73.5741 100.588 73.5741 98.9292 72.7448L90.0144 67.3545C88.5632 66.5252 87.5266 64.8666 87.5266 63.0008V52.6348C87.5266 50.9762 88.3559 49.3176 90.0144 48.281L98.9292 43.098C100.38 42.2688 102.246 42.2688 103.905 43.098L112.82 48.4884C114.271 49.3176 115.307 50.9762 115.307 52.8421V59.6836L123.186 55.1226V48.0737C123.186 46.4152 122.356 44.7566 120.698 43.72L104.112 33.976C102.661 33.1467 100.795 33.1467 99.1365 33.976L82.1363 43.9273C80.4777 44.7566 79.6484 46.4152 79.6484 48.0737V67.5618C79.6484 69.2204 80.4777 70.8789 82.1363 71.9155L98.9292 81.6596C100.38 82.4888 102.246 82.4888 103.905 81.6596L115.307 75.0253L123.186 70.4643L134.588 63.83C136.039 63.0008 137.905 63.0008 139.564 63.83L148.479 69.013C149.93 69.8423 150.967 71.5009 150.967 73.3668V83.7328C150.967 85.3913 150.137 87.0499 148.479 88.0865L139.771 93.2695C138.32 94.0988 136.454 94.0988 134.796 93.2695L125.881 88.0865C124.43 87.2572 123.393 85.5986 123.393 83.7328V77.0985L115.515 81.6596V88.5011C115.515 90.1597 116.344 91.8182 118.003 92.8548L134.796 102.599C136.247 103.428 138.113 103.428 139.771 102.599L156.564 92.8548C158.015 92.0256 159.052 90.367 159.052 88.5011V68.8057C159.052 67.1472 158.223 65.4886 156.564 64.452L139.771 54.708Z" fill="#ED254E"/>
<path d="M215.056 129.115L226.855 111.218L215.056 94.3198H224.655L232.354 105.318L239.253 94.3198H249.052L237.353 112.418L249.152 129.315H239.353L231.654 118.317L224.755 129.315H215.156V129.115H215.056V129.115Z" fill="#ED254E"/>
<path d="M169.847 104.025H189.101V111.819H169.847V104.025Z" fill="#ED254E"/>
<path d="M191.393 95.3914L187.497 88.0564L201.556 79.9578H209.96V129.316H200.638V90.2729L191.393 95.3914Z" fill="#ED254E"/>
</g>
<defs>
<linearGradient id="paint0_linear_701_1343" x1="141.732" y1="77.8885" x2="141.732" y2="283.39" gradientUnits="userSpaceOnUse">
<stop stop-color="#ED254E"/>
<stop offset="1" stop-color="#370D6E"/>
</linearGradient>
<clipPath id="clip0_701_1343">
<rect width="283.465" height="283.465" fill="white"/>
</clipPath>
</defs>
</svg>
