<svg id="Ebene_1" data-name="Ebene 1" xmlns="http://www.w3.org/2000/svg" xmlns:xlink="http://www.w3.org/1999/xlink" viewBox="0 0 283 283.1"><defs><style>.cls-1{fill:url(#linear-gradient);}.cls-2{fill:#fff;}.cls-3{fill:#460782;}</style><linearGradient id="linear-gradient" x1="141.7" y1="2352.57" x2="141.7" y2="2557.81" gradientTransform="translate(0 -2274.37)" gradientUnits="userSpaceOnUse"><stop offset="0" stop-color="#3a056c"/><stop offset="1" stop-color="#4d078d"/></linearGradient></defs><path class="cls-1" d="M141.8.4A141.55,141.55,0,1,0,283.2,142C283.2,63.81,219.79.4,141.8.4ZM19.67,87a134.07,134.07,0,0,1,172.06-70.6C258.53,42.74,292.79,118.23,269,185.64Z" transform="translate(-0.2 -0.4)"/><path class="cls-2" d="M19.67,87a134.07,134.07,0,0,1,172.06-70.6C258.53,42.74,292.79,118.23,269,185.64Z" transform="translate(-0.2 -0.4)"/><path class="cls-2" d="M78.89,171.46a7.39,7.39,0,0,1-4.1-6.09V152.19l40.85,17.47.2,49.53c0,11.38,0,12,8.28,15.58l24.57,10.38v17.68l-40.84-17.48c-4.5-2-8.29-7.49-8.29-12.38V215.3l-8.29-3.5c-4.49-2-8.29-7.49-8.29-12.38v-8.89l16.28,6.89V179.75Z" transform="translate(-0.2 -0.4)"/><path class="cls-2" d="M148.49,227.68l-8.29-3.5c-8.29-3.89-8.29-3.29-8.29-12.38V152.19l8.29,3.49c4.5,2,8.29,7.49,8.29,12.38Z" transform="translate(-0.2 -0.4)"/><path class="cls-3" d="M182,125.62v-7.69l16.08-15.87a17.36,17.36,0,0,0,4.09-5.1,9.3,9.3,0,0,0,1.4-5.09,5.47,5.47,0,0,0-1.6-4.09c-1-1-3-1.6-5.49-1.6H182.94V78.69a63.58,63.58,0,0,1,6.89-1,54.66,54.66,0,0,1,8.49-.6,21.78,21.78,0,0,1,8.89,1.6,8.63,8.63,0,0,1,4.49,4.49,15.51,15.51,0,0,1,1.4,7.09,16.42,16.42,0,0,1-2,8.49,35.32,35.32,0,0,1-5.69,7.49L194.82,117H214.9v8.68H182Zm37.55,0,11.78-17.87L219.59,90.87h9.59l7.69,11,6.89-11h9.78L241.86,109l11.78,16.87h-9.78l-7.69-11-6.89,11h-9.59v-.2Z" transform="translate(-0.2 -0.4)"/><path class="cls-3" d="M142.2,56.52a5.52,5.52,0,0,0-5.29,0l-12.39,7.29-8.38,4.69L104,75.79a5.52,5.52,0,0,1-5.29,0L89.07,70a5.42,5.42,0,0,1-2.69-4.69v-11a5.61,5.61,0,0,1,2.69-4.69l9.49-5.49a5.52,5.52,0,0,1,5.29,0l9.49,5.79a5.42,5.42,0,0,1,2.7,4.69v7.29L124.42,57V49.53a5.58,5.58,0,0,0-2.69-4.69L104.15,34.35a5.52,5.52,0,0,0-5.29,0L80.69,45A4.9,4.9,0,0,0,78,49.43V70.2a5.57,5.57,0,0,0,2.7,4.69l18,10.39a5.52,5.52,0,0,0,5.29,0l12.19-7.09,8.38-4.89,12.19-7.09a5.52,5.52,0,0,1,5.29,0l9.49,5.49a5.43,5.43,0,0,1,2.69,4.69V87.48a5.61,5.61,0,0,1-2.69,4.69l-9.29,5.49a5.52,5.52,0,0,1-5.29,0l-9.49-5.49a5.42,5.42,0,0,1-2.7-4.69V80.39l-8.38,4.89v7.29A5.58,5.58,0,0,0,119,97.26l18,10.39a5.52,5.52,0,0,0,5.29,0l18-10.39a5.4,5.4,0,0,0,2.7-4.69v-21a5.57,5.57,0,0,0-2.7-4.69Z" transform="translate(-0.2 -0.4)"/></svg>